<svg width="167" height="120" viewBox="0 0 167 120" fill="none" xmlns="http://www.w3.org/2000/svg">
<g clip-path="url(#clip0_107_3862)">
<rect width="167" height="120" rx="6" fill="#1A1A1A"/>
<path d="M73.2479 103.569H73.1317C73.2071 104.099 73.2478 104.644 73.2479 105.201C73.2479 111.459 68.1736 116.534 61.9149 116.534H60.5194C52.7541 116.534 47.3922 108.76 50.1502 101.501C51.3073 98.456 53.7444 96.0735 56.8153 94.9857L58.1317 94.5189C61.4161 93.3556 64.7727 93.7958 67.4861 95.3324V50.2719H73.2479V103.569Z" fill="url(#paint0_linear_107_3862)"/>
<path d="M55.9614 20.0214H55.9624V73.3193H55.9507C55.9576 73.462 55.9624 73.6056 55.9624 73.7499C55.9624 78.969 51.3681 83.2001 45.7017 83.2001H44.6216C38.9554 83.1999 34.3618 78.9689 34.3618 73.7499C34.3619 68.5311 38.9554 64.3 44.6216 64.2997H45.7017C47.315 64.2997 48.8416 64.6437 50.1997 65.2548V35.0019L18.5093 38.1718V81.9619H12.7476V20.0214L55.9614 15.7001V20.0214ZM18.5093 25.207V32.4091L50.1997 29.2402V22.037L18.5093 25.207Z" fill="url(#paint1_linear_107_3862)"/>
<path d="M-5.71021 80.5002C-5.71021 74.5355 -0.542452 69.7002 5.83229 69.7002H7.04729C13.422 69.7002 18.5898 74.5355 18.5898 80.5002C18.5898 86.4649 13.422 91.3002 7.0473 91.3002H5.8323C-0.542448 91.3002 -5.71021 86.4649 -5.71021 80.5002Z" fill="#5A5A5A"/>
<path d="M82.85 29.2001L85.1704 37.331L93.3722 35.2751L87.4908 41.3501L93.3722 47.4251L85.1704 45.3693L82.85 53.5001L80.5295 45.3693L72.3277 47.4251L78.2091 41.3501L72.3277 35.2751L80.5295 37.331L82.85 29.2001Z" fill="url(#paint2_radial_107_3862)"/>
<path d="M117.633 51.3555C121.578 51.3555 124.078 52.6641 124.098 54.832C124.078 56.9805 121.578 58.2891 117.633 58.2695C113.707 58.2891 111.148 56.9805 111.148 54.832C111.148 52.6641 113.707 51.3555 117.633 51.3555ZM117.633 53.2891C115.152 53.2891 113.727 53.8164 113.746 54.832C113.727 55.8281 115.152 56.3359 117.633 56.3359C120.094 56.3359 121.52 55.8281 121.52 54.832C121.52 53.8164 120.094 53.2891 117.633 53.2891ZM123.805 62.5469V68.6016H111.402V62.5469H123.805ZM113.863 64.5195V66.6094H121.363V64.5195H113.863ZM125.738 59.3047V61.2969H109.527V59.3047H125.738ZM131.212 52C133.966 51.9805 136.056 53.8164 136.056 56.3164C136.056 58.875 133.966 60.6719 131.212 60.6719C128.439 60.6719 126.33 58.875 126.33 56.3164C126.33 53.8164 128.439 51.9805 131.212 52ZM131.212 54.1289C129.806 54.1289 128.771 54.9297 128.791 56.3164C128.771 57.7422 129.806 58.5625 131.212 58.5625C132.58 58.5625 133.615 57.7422 133.634 56.3164C133.615 54.9297 132.58 54.1289 131.212 54.1289ZM140.314 51.0234V55.2031H142.716V57.2344H140.314V61.4141H137.814V51.0234H140.314ZM140.314 62.1562V68.8164H137.814V64.168H128.341V62.1562H140.314Z" fill="#F4EFE6"/>
</g>
<defs>
<linearGradient id="paint0_linear_107_3862" x1="61.3323" y1="50.2719" x2="61.3323" y2="116.534" gradientUnits="userSpaceOnUse">
<stop stop-color="#878787"/>
</linearGradient>
<linearGradient id="paint1_linear_107_3862" x1="34.355" y1="15.7001" x2="34.355" y2="83.2001" gradientUnits="userSpaceOnUse">
<stop stop-color="#5A5A5A"/>
</linearGradient>
<radialGradient id="paint2_radial_107_3862" cx="0" cy="0" r="1" gradientUnits="userSpaceOnUse" gradientTransform="translate(82.85 41.3501) rotate(90) scale(6.75)">
<stop offset="1" stop-color="#CCCCCC"/>
</radialGradient>
<clipPath id="clip0_107_3862">
<rect width="167" height="120" rx="6" fill="white"/>
</clipPath>
</defs>
</svg>
